<?xml version="1.0" encoding="utf-8"?>
<!-- Generator: Adobe Illustrator 13.0.2, SVG Export Plug-In  -->
<!DOCTYPE svg PUBLIC "-//W3C//DTD SVG 1.1//EN" "http://www.w3.org/Graphics/SVG/1.1/DTD/svg11.dtd" [
	<!ENTITY ns_flows "http://ns.adobe.com/Flows/1.0/">
]>
<svg version="1.1"
	 xmlns="http://www.w3.org/2000/svg" xmlns:xlink="http://www.w3.org/1999/xlink" xmlns:a="http://ns.adobe.com/AdobeSVGViewerExtensions/3.0/"
	 x="0px" y="0px" width="68px" height="63px" viewBox="-0.823 -0.382 68 63" enable-background="new -0.823 -0.382 68 63"
	 xml:space="preserve">
<defs>
</defs>
<path fill="#0CB14B" d="M64.8,28.115c-1.718-3.374-5.848-4.715-9.222-2.998c-0.266,0.135-0.518,0.288-0.76,0.45L36.723,38.082h21.97
	c1.045,0,2.115-0.238,3.11-0.745C65.176,35.615,66.519,31.489,64.8,28.115"/>
<path fill="none" stroke="#FFFFFF" stroke-width="2.298" stroke-miterlimit="3.864" d="M64.8,28.115
	c-1.718-3.374-5.848-4.715-9.222-2.998c-0.266,0.135-0.518,0.288-0.76,0.45L36.723,38.082h21.97c1.045,0,2.115-0.238,3.11-0.745
	C65.176,35.615,66.519,31.489,64.8,28.115z"/>
<path fill="#0089D0" d="M47.227,13.9L37.741,35.72l19.552-13.527c0.421-0.292,0.816-0.64,1.175-1.034
	c2.505-2.782,2.279-7.066-0.502-9.569c-2.779-2.507-7.065-2.28-9.569,0.501C47.9,12.645,47.512,13.256,47.227,13.9"/>
<path fill="none" stroke="#FFFFFF" stroke-width="2.298" stroke-miterlimit="3.864" d="M47.227,13.9L37.741,35.72l19.552-13.527
	c0.421-0.292,0.816-0.64,1.175-1.034c2.505-2.782,2.279-7.066-0.502-9.569c-2.779-2.507-7.065-2.28-9.569,0.501
	C47.9,12.645,47.512,13.256,47.227,13.9z"/>
<path fill="#645FAA" d="M47.181,10.683c0.259-0.61,0.433-1.267,0.505-1.96c0.397-3.766-2.338-7.14-6.103-7.536
	c-3.766-0.395-7.14,2.338-7.535,6.104c-0.039,0.376-0.05,0.751-0.027,1.121h-0.007c0,0.114,0.05,0.167,0.178,0.167
	c0.126,0,1.648,0,1.821,0c0.372,0,0.928,0.11,0.928,0.403c0,0.224-0.989,0.434-1.599,1.021c-0.643,0.617-0.935,1.72-0.781,2.781
	v-0.006l3.046,20.516L47.181,10.683"/>
<path fill="none" stroke="#FFFFFF" stroke-width="2.298" stroke-miterlimit="3.864" d="M47.181,10.683
	c0.259-0.61,0.433-1.267,0.505-1.96c0.397-3.766-2.338-7.14-6.103-7.536c-3.766-0.395-7.14,2.338-7.535,6.104
	c-0.039,0.376-0.05,0.751-0.027,1.121h-0.007c0,0.114,0.05,0.167,0.178,0.167c0.126,0,1.648,0,1.821,0
	c0.372,0,0.928,0.11,0.928,0.403c0,0.224-0.989,0.434-1.599,1.021c-0.643,0.617-0.935,1.72-0.781,2.781v-0.006l3.046,20.516
	L47.181,10.683z"/>
<path fill="#FDB913" d="M8.007,38.082h21.967L11.877,25.567c-0.239-0.162-0.493-0.315-0.757-0.45
	c-3.376-1.717-7.506-0.376-9.222,2.998c-1.72,3.374-0.377,7.5,2.996,9.222C5.89,37.844,6.961,38.082,8.007,38.082"/>
<path fill="none" stroke="#FFFFFF" stroke-width="2.298" stroke-miterlimit="3.864" d="M8.007,38.082h21.967L11.877,25.567
	c-0.239-0.162-0.493-0.315-0.757-0.45c-3.376-1.717-7.506-0.376-9.222,2.998c-1.72,3.374-0.377,7.5,2.996,9.222
	C5.89,37.844,6.961,38.082,8.007,38.082z"/>
<path fill="#F37021" d="M19.47,13.9l9.485,21.819L9.404,22.192c-0.421-0.292-0.816-0.64-1.173-1.034
	c-2.505-2.782-2.28-7.066,0.5-9.569c2.782-2.507,7.064-2.28,9.57,0.501C18.798,12.645,19.189,13.256,19.47,13.9"/>
<path fill="none" stroke="#FFFFFF" stroke-width="2.298" stroke-miterlimit="3.864" d="M19.47,13.9l9.485,21.819L9.404,22.192
	c-0.421-0.292-0.816-0.64-1.173-1.034c-2.505-2.782-2.28-7.066,0.5-9.569c2.782-2.507,7.064-2.28,9.57,0.501
	C18.798,12.645,19.189,13.256,19.47,13.9z"/>
<path fill="#C8234A" d="M32.676,8.412l-3.588,24.882l-9.573-22.611c-0.258-0.61-0.43-1.267-0.503-1.96
	c-0.396-3.766,2.338-7.14,6.102-7.536c3.766-0.395,7.141,2.338,7.534,6.104C32.689,7.667,32.697,8.042,32.676,8.412"/>
<path fill="none" stroke="#FFFFFF" stroke-width="2.298" stroke-miterlimit="3.864" d="M32.676,8.412l-3.588,24.882l-9.573-22.611
	c-0.258-0.61-0.43-1.267-0.503-1.96c-0.396-3.766,2.338-7.14,6.102-7.536c3.766-0.395,7.141,2.338,7.534,6.104
	C32.689,7.667,32.697,8.042,32.676,8.412z"/>
<path fill="#231F20" d="M12.41,44.273c-0.238-1.153-1.184-1.456-2.239-1.555c-3.414-0.316-4.021,2.233-4.021,3.311
	c0,1.84,0.539,3.35,3.892,3.35c0.616,0,2.323-0.621,2.323-1.653h4.82c-0.192,3.061-5.349,3.796-7.597,3.796
	c-4.659,0-8.646-0.866-8.454-5.449c0.141-3.274,3.235-5.572,9.393-5.43c3.43,0.083,6.726,1.148,6.74,3.631H12.41"/>
<path fill="#231F20" d="M60.687,44.273c-0.237-1.153-1.182-1.456-2.238-1.555c-3.413-0.316-4.019,2.233-4.019,3.311
	c0,1.84,0.537,3.35,3.89,3.35c0.617,0,2.324-0.621,2.324-1.653h4.818c-0.191,3.061-5.347,3.796-7.595,3.796
	c-4.658,0-8.646-0.866-8.453-5.449c0.137-3.274,3.231-5.572,9.388-5.43c3.432,0.083,6.728,1.148,6.745,3.631H60.687"/>
<polyline fill="#231F20" points="18.127,40.863 24.384,40.863 29.724,48.344 29.767,48.344 29.767,40.863 33.777,40.863 
	33.777,51.248 27.783,51.248 22.183,43.77 22.14,43.77 22.14,51.248 18.127,51.248 18.127,40.863 "/>
<path fill="#231F20" d="M39.417,49.071h1.259c2.339,0,3.199-0.245,3.199-1.049c0-0.865-1.087-1.155-2.832-1.155h-1.626V49.071
	 M39.417,44.898h1.259c1.939,0,2.971-0.152,2.971-0.956c0-0.865-0.859-1.151-2.604-1.151h-1.626V44.898z M35.016,40.863h7.598
	c3.656,0,5.803,1.02,5.803,2.562c0,0.906-0.9,2.03-2.904,2.36v0.031c2.415,0.143,3.306,1.668,3.306,2.582
	c0,1.831-2.096,2.85-6.183,2.85h-7.62V40.863z"/>
<path fill="#231F20" d="M5.531,58.693h3.191L7.17,55.541H7.135L5.531,58.693 M5.79,53.432h2.776l4.607,8.569h-2.812l-0.93-1.906
	H4.824l-0.966,1.906H1.114L5.79,53.432z"/>
<polyline fill="#231F20" points="14.243,53.432 22.897,53.432 22.897,55.017 16.947,55.017 16.947,56.997 22.104,56.997 
	22.104,58.458 16.947,58.458 16.947,62.001 14.243,62.001 14.243,53.432 "/>
<path fill="#231F20" d="M27.176,57.317h2.975c0.622,0,1.09-0.095,1.403-0.291c0.31-0.192,0.466-0.505,0.466-0.94
	c0-0.417-0.156-0.722-0.466-0.909c-0.313-0.188-0.781-0.283-1.403-0.283h-2.975V57.317 M24.472,53.432h6.644
	c0.555,0,1.049,0.063,1.495,0.185c0.445,0.123,0.821,0.294,1.138,0.512c0.315,0.216,0.558,0.468,0.724,0.757
	c0.168,0.288,0.249,0.593,0.249,0.914c0,0.502-0.152,0.941-0.454,1.313c-0.304,0.368-0.803,0.646-1.491,0.84v0.025
	c0.333,0.063,0.611,0.161,0.829,0.3c0.219,0.134,0.396,0.29,0.535,0.472c0.138,0.179,0.238,0.376,0.302,0.587
	c0.063,0.212,0.105,0.426,0.127,0.642c0.012,0.134,0.024,0.296,0.034,0.479c0.013,0.183,0.034,0.37,0.061,0.564
	c0.032,0.188,0.075,0.371,0.139,0.545c0.064,0.169,0.159,0.315,0.284,0.436h-2.706c-0.082-0.134-0.142-0.286-0.182-0.449
	c-0.042-0.166-0.074-0.337-0.105-0.514c-0.028-0.179-0.05-0.367-0.068-0.553c-0.016-0.189-0.043-0.365-0.078-0.533
	c-0.093-0.448-0.286-0.776-0.589-0.984c-0.298-0.208-0.79-0.313-1.468-0.313h-2.716v3.346h-2.704V53.432z"/>
<rect x="36.929" y="53.431" fill="#231F20" width="2.705" height="8.57"/>
<path fill="#231F20" d="M50.232,56.32c-0.047-0.216-0.15-0.412-0.312-0.593c-0.16-0.183-0.361-0.341-0.603-0.478
	c-0.241-0.133-0.514-0.24-0.819-0.315c-0.305-0.076-0.624-0.116-0.959-0.116c-0.608,0-1.126,0.084-1.551,0.249
	c-0.426,0.164-0.771,0.382-1.036,0.66c-0.265,0.273-0.456,0.588-0.579,0.94c-0.119,0.352-0.178,0.716-0.178,1.09
	c0,0.36,0.059,0.709,0.178,1.051c0.123,0.341,0.314,0.646,0.579,0.915c0.265,0.271,0.61,0.491,1.036,0.654
	c0.425,0.164,0.943,0.248,1.551,0.248c0.827,0,1.474-0.179,1.942-0.531c0.463-0.35,0.751-0.814,0.855-1.388h2.621
	c-0.068,0.534-0.247,1.019-0.534,1.451c-0.289,0.431-0.668,0.803-1.141,1.105c-0.47,0.303-1.023,0.536-1.656,0.701
	c-0.63,0.164-1.328,0.244-2.087,0.244c-0.953,0-1.804-0.115-2.552-0.347c-0.745-0.232-1.378-0.546-1.897-0.948
	c-0.516-0.4-0.911-0.873-1.189-1.415c-0.275-0.545-0.412-1.125-0.412-1.741c0-0.63,0.137-1.225,0.412-1.775
	c0.278-0.553,0.673-1.032,1.189-1.441c0.519-0.407,1.152-0.725,1.897-0.959c0.748-0.231,1.599-0.349,2.552-0.349
	c0.668,0,1.304,0.069,1.916,0.204c0.608,0.138,1.153,0.335,1.629,0.597c0.478,0.259,0.872,0.58,1.182,0.965s0.506,0.825,0.588,1.321
	H50.232"/>
<path fill="#231F20" d="M57.913,58.693h3.192l-1.554-3.152h-0.034L57.913,58.693 M58.171,53.432h2.776l4.608,8.569h-2.813
	l-0.931-1.906h-4.605l-0.967,1.906h-2.742L58.171,53.432z"/>
<path fill="#0CB14B" d="M64.8,28.115c-1.718-3.374-5.848-4.715-9.222-2.998c-0.266,0.135-0.518,0.288-0.76,0.45L36.723,38.082h21.97
	c1.045,0,2.115-0.238,3.11-0.745C65.176,35.615,66.519,31.489,64.8,28.115"/>
<path fill="#0089D0" d="M47.227,13.9L37.741,35.72l19.552-13.527c0.421-0.292,0.816-0.64,1.175-1.034
	c2.505-2.782,2.279-7.066-0.502-9.569c-2.779-2.507-7.065-2.28-9.569,0.501C47.9,12.645,47.512,13.256,47.227,13.9"/>
<path fill="#645FAA" d="M47.181,10.683c0.259-0.61,0.433-1.267,0.505-1.96c0.397-3.766-2.338-7.14-6.103-7.536
	c-3.766-0.395-7.14,2.338-7.535,6.104c-0.039,0.376-0.05,0.751-0.027,1.121h-0.007c0,0.114,0.05,0.167,0.178,0.167
	c0.126,0,1.648,0,1.821,0c0.372,0,0.928,0.11,0.928,0.403c0,0.224-0.989,0.434-1.599,1.021c-0.643,0.617-0.935,1.72-0.781,2.781
	v-0.006l3.046,20.516L47.181,10.683"/>
<path fill="#FDB913" d="M8.007,38.082h21.967L11.877,25.567c-0.239-0.162-0.493-0.315-0.757-0.45
	c-3.376-1.717-7.506-0.376-9.222,2.998c-1.72,3.374-0.377,7.5,2.996,9.222C5.89,37.844,6.961,38.082,8.007,38.082"/>
<path fill="#F37021" d="M19.47,13.9l9.485,21.819L9.404,22.192c-0.421-0.292-0.816-0.64-1.173-1.034
	c-2.505-2.782-2.28-7.066,0.5-9.569c2.782-2.507,7.064-2.28,9.57,0.501C18.798,12.645,19.189,13.256,19.47,13.9"/>
<path fill="#C8234A" d="M32.676,8.412l-3.588,24.882l-9.573-22.611c-0.258-0.61-0.43-1.267-0.503-1.96
	c-0.396-3.766,2.338-7.14,6.102-7.536c3.766-0.395,7.141,2.338,7.534,6.104C32.689,7.667,32.697,8.042,32.676,8.412"/>
</svg>
